<svg width="415" height="263" viewBox="0 0 415 263" fill="none" xmlns="http://www.w3.org/2000/svg">
<ellipse cx="207.5" cy="213" rx="207.5" ry="213" fill="#CFA4F5"/>
<ellipse cx="211" cy="213.5" rx="178" ry="182.5" fill="#BD8BE8"/>
<circle cx="205" cy="222" r="155" fill="#7B2CBF"/>
<circle cx="205.001" cy="222.001" r="136.467" fill="#A049EB"/>
<circle cx="210.495" cy="223.565" r="10.5485" fill="#7B2CBF"/>
<rect x="207.489" y="149.551" width="6.17754" height="71.3225" rx="3.08877" fill="#7B2CBF"/>
<rect x="207.562" y="223.685" width="6.17754" height="92.7166" rx="3.08877" transform="rotate(43.9413 207.562 223.685)" fill="#7B2CBF"/>
<rect x="198.808" y="80.4777" width="19.2063" height="33.9804" rx="9.60315" fill="#7B2CBF"/>
<rect x="302.431" y="113.176" width="19.2063" height="33.9804" rx="9.60315" transform="rotate(50.0352 302.431 113.176)" fill="#7B2CBF"/>
<rect x="348.763" y="213.444" width="19.2063" height="33.9804" rx="9.60315" transform="rotate(89.5666 348.763 213.444)" fill="#7B2CBF"/>
<rect x="60.7166" y="232.738" width="19.2063" height="33.9804" rx="9.60315" transform="rotate(-90.1392 60.7166 232.738)" fill="#7B2CBF"/>
<rect x="97.6055" y="127.375" width="19.2063" height="33.9804" rx="9.60315" transform="rotate(-48.5319 97.6055 127.375)" fill="#7B2CBF"/>
<path d="M93.9826 90.8525C90.6084 86.7606 91.1903 80.7081 95.2822 77.334C99.3742 73.9598 105.427 74.5416 108.801 78.6336L118.2 90.0322C121.574 94.1241 120.992 100.177 116.9 103.551C112.808 106.925 106.756 106.343 103.382 102.251L93.9826 90.8525Z" fill="#7B2CBF"/>
<path d="M72.5231 107.555C60.084 91.2566 63.2126 67.9602 79.511 55.5211C95.8094 43.082 119.106 46.2106 131.545 62.509L133.422 64.9683L74.4 110.014L72.5231 107.555Z" fill="#7B2CBF"/>
<path d="M319.326 97.6293C322.7 93.5374 322.118 87.4849 318.026 84.1107C313.934 80.7365 307.882 81.3184 304.508 85.4103L295.108 96.8089C291.734 100.901 292.316 106.953 296.408 110.328C300.5 113.702 306.552 113.12 309.927 109.028L319.326 97.6293Z" fill="#7B2CBF"/>
<path d="M284.756 63.5616C296.397 46.6837 319.516 42.4381 336.394 54.0788C353.272 65.7195 357.517 88.8384 345.877 105.716L344.12 108.263L283 66.1083L284.756 63.5616Z" fill="#7B2CBF"/>
</svg>
